<svg xmlns="http://www.w3.org/2000/svg" xmlns:xlink="http://www.w3.org/1999/xlink" viewBox="0 0 39 29"><defs><style>.a{fill:none;}.b{fill:#fff;stroke:#204c6f;}.c{clip-path:url(#a);}.d{stroke:none;}</style><clipPath id="a"><rect class="a" width="30" height="21"/></clipPath></defs><g transform="translate(-639 -190)"><g class="b" transform="translate(639 190)"><rect class="d" width="39" height="29" rx="3"/><rect class="a" x="0.5" y="0.5" width="38" height="28" rx="2.5"/></g><g class="c" transform="translate(644 194)"><g transform="translate(-643 -194)"><g class="b" transform="translate(643 194)"><circle class="d" cx="0.5" cy="0.5" r="0.5"/><circle class="a" cx="0.5" cy="0.5"/></g><g class="b" transform="translate(643 198)"><circle class="d" cx="0.5" cy="0.5" r="0.5"/><circle class="a" cx="0.5" cy="0.5"/></g><g class="b" transform="translate(643 202)"><circle class="d" cx="0.5" cy="0.5" r="0.5"/><circle class="a" cx="0.5" cy="0.5"/></g></g><g transform="translate(-639 -194)"><g class="b" transform="translate(643 194)"><circle class="d" cx="0.5" cy="0.5" r="0.5"/><circle class="a" cx="0.5" cy="0.5"/></g><g class="b" transform="translate(643 198)"><circle class="d" cx="0.5" cy="0.5" r="0.5"/><circle class="a" cx="0.5" cy="0.5"/></g><g class="b" transform="translate(643 202)"><circle class="d" cx="0.5" cy="0.5" r="0.5"/><circle class="a" cx="0.5" cy="0.5"/></g></g><g transform="translate(-635 -194)"><g class="b" transform="translate(643 194)"><circle class="d" cx="0.5" cy="0.5" r="0.5"/><circle class="a" cx="0.5" cy="0.5"/></g><g class="b" transform="translate(643 198)"><circle class="d" cx="0.5" cy="0.5" r="0.5"/><circle class="a" cx="0.5" cy="0.5"/></g><g class="b" transform="translate(643 202)"><circle class="d" cx="0.5" cy="0.5" r="0.5"/><circle class="a" cx="0.5" cy="0.5"/></g></g><g transform="translate(-631 -194)"><g class="b" transform="translate(643 194)"><circle class="d" cx="0.5" cy="0.5" r="0.5"/><circle class="a" cx="0.5" cy="0.5"/></g><g class="b" transform="translate(643 198)"><circle class="d" cx="0.5" cy="0.5" r="0.5"/><circle class="a" cx="0.5" cy="0.5"/></g><g class="b" transform="translate(643 202)"><circle class="d" cx="0.5" cy="0.5" r="0.5"/><circle class="a" cx="0.5" cy="0.5"/></g></g><g transform="translate(-627 -194)"><g class="b" transform="translate(643 194)"><circle class="d" cx="0.5" cy="0.5" r="0.5"/><circle class="a" cx="0.5" cy="0.5"/></g><g class="b" transform="translate(643 198)"><circle class="d" cx="0.5" cy="0.5" r="0.5"/><circle class="a" cx="0.5" cy="0.5"/></g><g class="b" transform="translate(643 202)"><circle class="d" cx="0.5" cy="0.5" r="0.5"/><circle class="a" cx="0.5" cy="0.5"/></g></g><g transform="translate(-623 -194)"><g class="b" transform="translate(643 194)"><circle class="d" cx="0.5" cy="0.5" r="0.5"/><circle class="a" cx="0.5" cy="0.5"/></g><g class="b" transform="translate(643 198)"><circle class="d" cx="0.5" cy="0.5" r="0.5"/><circle class="a" cx="0.5" cy="0.5"/></g><g class="b" transform="translate(643 202)"><circle class="d" cx="0.5" cy="0.5" r="0.5"/><circle class="a" cx="0.5" cy="0.5"/></g></g><g transform="translate(-619 -194)"><g class="b" transform="translate(643 194)"><circle class="d" cx="0.5" cy="0.5" r="0.5"/><circle class="a" cx="0.5" cy="0.5"/></g><g class="b" transform="translate(643 198)"><circle class="d" cx="0.5" cy="0.5" r="0.5"/><circle class="a" cx="0.5" cy="0.5"/></g><g class="b" transform="translate(643 202)"><circle class="d" cx="0.5" cy="0.5" r="0.5"/><circle class="a" cx="0.5" cy="0.5"/></g></g><g transform="translate(-615 -194)"><g class="b" transform="translate(643 194)"><circle class="d" cx="0.5" cy="0.5" r="0.5"/><circle class="a" cx="0.5" cy="0.5"/></g><g class="b" transform="translate(643 198)"><circle class="d" cx="0.5" cy="0.5" r="0.5"/><circle class="a" cx="0.5" cy="0.5"/></g><g class="b" transform="translate(643 202)"><circle class="d" cx="0.5" cy="0.5" r="0.5"/><circle class="a" cx="0.5" cy="0.5"/></g></g><g transform="translate(-643 -182)"><g class="b" transform="translate(643 194)"><circle class="d" cx="0.5" cy="0.5" r="0.5"/><circle class="a" cx="0.5" cy="0.5"/></g><g class="b" transform="translate(643 198)"><circle class="d" cx="0.5" cy="0.5" r="0.5"/><circle class="a" cx="0.5" cy="0.5"/></g><g class="b" transform="translate(643 202)"><circle class="d" cx="0.5" cy="0.5" r="0.5"/><circle class="a" cx="0.5" cy="0.5"/></g></g><g transform="translate(-639 -182)"><g class="b" transform="translate(643 194)"><circle class="d" cx="0.5" cy="0.5" r="0.5"/><circle class="a" cx="0.5" cy="0.5"/></g><g class="b" transform="translate(643 198)"><circle class="d" cx="0.5" cy="0.5" r="0.5"/><circle class="a" cx="0.5" cy="0.5"/></g><g class="b" transform="translate(643 202)"><circle class="d" cx="0.5" cy="0.5" r="0.5"/><circle class="a" cx="0.5" cy="0.5"/></g></g><g transform="translate(-635 -182)"><g class="b" transform="translate(643 194)"><circle class="d" cx="0.5" cy="0.5" r="0.5"/><circle class="a" cx="0.5" cy="0.5"/></g><g class="b" transform="translate(643 198)"><circle class="d" cx="0.5" cy="0.5" r="0.5"/><circle class="a" cx="0.5" cy="0.5"/></g><g class="b" transform="translate(643 202)"><circle class="d" cx="0.5" cy="0.5" r="0.5"/><circle class="a" cx="0.5" cy="0.5"/></g></g><g transform="translate(-631 -182)"><g class="b" transform="translate(643 194)"><circle class="d" cx="0.5" cy="0.5" r="0.5"/><circle class="a" cx="0.5" cy="0.5"/></g><g class="b" transform="translate(643 198)"><circle class="d" cx="0.5" cy="0.5" r="0.5"/><circle class="a" cx="0.5" cy="0.5"/></g><g class="b" transform="translate(643 202)"><circle class="d" cx="0.5" cy="0.5" r="0.5"/><circle class="a" cx="0.5" cy="0.5"/></g></g><g transform="translate(-627 -182)"><g class="b" transform="translate(643 194)"><circle class="d" cx="0.5" cy="0.5" r="0.5"/><circle class="a" cx="0.5" cy="0.5"/></g><g class="b" transform="translate(643 198)"><circle class="d" cx="0.5" cy="0.5" r="0.5"/><circle class="a" cx="0.5" cy="0.5"/></g><g class="b" transform="translate(643 202)"><circle class="d" cx="0.5" cy="0.5" r="0.5"/><circle class="a" cx="0.5" cy="0.5"/></g></g><g transform="translate(-623 -182)"><g class="b" transform="translate(643 194)"><circle class="d" cx="0.5" cy="0.5" r="0.5"/><circle class="a" cx="0.5" cy="0.5"/></g><g class="b" transform="translate(643 198)"><circle class="d" cx="0.5" cy="0.5" r="0.5"/><circle class="a" cx="0.5" cy="0.5"/></g><g class="b" transform="translate(643 202)"><circle class="d" cx="0.5" cy="0.5" r="0.5"/><circle class="a" cx="0.5" cy="0.5"/></g></g><g transform="translate(-619 -182)"><g class="b" transform="translate(643 194)"><circle class="d" cx="0.5" cy="0.5" r="0.5"/><circle class="a" cx="0.5" cy="0.5"/></g><g class="b" transform="translate(643 198)"><circle class="d" cx="0.5" cy="0.5" r="0.5"/><circle class="a" cx="0.5" cy="0.5"/></g><g class="b" transform="translate(643 202)"><circle class="d" cx="0.5" cy="0.5" r="0.5"/><circle class="a" cx="0.5" cy="0.5"/></g></g><g transform="translate(-615 -182)"><g class="b" transform="translate(643 194)"><circle class="d" cx="0.5" cy="0.5" r="0.5"/><circle class="a" cx="0.5" cy="0.5"/></g><g class="b" transform="translate(643 198)"><circle class="d" cx="0.5" cy="0.5" r="0.5"/><circle class="a" cx="0.5" cy="0.5"/></g><g class="b" transform="translate(643 202)"><circle class="d" cx="0.5" cy="0.5" r="0.5"/><circle class="a" cx="0.5" cy="0.5"/></g></g></g></g></svg>