<svg xmlns="http://www.w3.org/2000/svg" viewBox="0 0 22.272 22"><defs><style>.a{fill:#eaeaea;opacity:0;}.b{fill:#fff;stroke:#ebebeb;}.c{fill:#3f3f3f;stroke:#e7e7e7;}.d,.f{fill:none;}.d{stroke:#3f3f3f;stroke-linecap:round;stroke-width:2px;}.e{stroke:none;}</style></defs><g transform="translate(-494 -30)"><rect class="a" width="22" height="22" rx="3" transform="translate(494 30)"/><g transform="translate(-11.728)"><g transform="translate(-198.272 -656.272)"><g transform="translate(708.913 700.845) rotate(-45)"><g class="b" transform="translate(0)"><rect class="e" width="16.366" height="8.183" rx="3"/><rect class="f" x="0.5" y="0.5" width="15.366" height="7.183" rx="2.5"/></g><g class="c" transform="translate(8.183 0)"><path class="e" d="M0,0H5.183a3,3,0,0,1,3,3V5.183a3,3,0,0,1-3,3H0a0,0,0,0,1,0,0V0A0,0,0,0,1,0,0Z"/><path class="f" d="M1,.5H5.183A2.5,2.5,0,0,1,7.683,3V5.183a2.5,2.5,0,0,1-2.5,2.5H1a.5.5,0,0,1-.5-.5V1A.5.5,0,0,1,1,.5Z"/></g></g><line class="d" x2="4.091" transform="translate(706 695.224)"/></g></g></g></svg>