<svg xmlns="http://www.w3.org/2000/svg" xmlns:xlink="http://www.w3.org/1999/xlink" viewBox="0 0 757 761">
    <defs>
        <style>.a,.d{fill:none;}.b{fill:#fff;}.c{clip-path:url(#c);}.d{stroke:#707070;}</style>

        <clipPath id="c">
            <rect class="a" width="739" height="722"/>
        </clipPath>
    </defs>
    <g transform="translate(-232 6)">
        <g class="e" transform="matrix(1, 0, 0, 1, 232, -6)">
            <rect class="b" width="739" height="743" transform="translate(9 6)"/>
        </g>
        <g class="c" transform="translate(241 30)">
            <g transform="translate(-241 -30)">
                <line class="d" x2="739" transform="translate(241 30)"/>
            </g>
            <g transform="translate(-241 -10)">
                <line class="d" x2="739" transform="translate(241 30)"/>
            </g>
            <g transform="translate(-241 10)">
                <line class="d" x2="739" transform="translate(241 30)"/>
            </g>
            <g transform="translate(-241 30)">
                <line class="d" x2="739" transform="translate(241 30)"/>
            </g>
            <g transform="translate(-241 50)">
                <line class="d" x2="739" transform="translate(241 30)"/>
            </g>
            <g transform="translate(-241 70)">
                <line class="d" x2="739" transform="translate(241 30)"/>
            </g>
            <g transform="translate(-241 90)">
                <line class="d" x2="739" transform="translate(241 30)"/>
            </g>
            <g transform="translate(-241 110)">
                <line class="d" x2="739" transform="translate(241 30)"/>
            </g>
            <g transform="translate(-241 130)">
                <line class="d" x2="739" transform="translate(241 30)"/>
            </g>
            <g transform="translate(-241 150)">
                <line class="d" x2="739" transform="translate(241 30)"/>
            </g>
            <g transform="translate(-241 170)">
                <line class="d" x2="739" transform="translate(241 30)"/>
            </g>
            <g transform="translate(-241 190)">
                <line class="d" x2="739" transform="translate(241 30)"/>
            </g>
            <g transform="translate(-241 210)">
                <line class="d" x2="739" transform="translate(241 30)"/>
            </g>
            <g transform="translate(-241 230)">
                <line class="d" x2="739" transform="translate(241 30)"/>
            </g>
            <g transform="translate(-241 250)">
                <line class="d" x2="739" transform="translate(241 30)"/>
            </g>
            <g transform="translate(-241 270)">
                <line class="d" x2="739" transform="translate(241 30)"/>
            </g>
            <g transform="translate(-241 290)">
                <line class="d" x2="739" transform="translate(241 30)"/>
            </g>
            <g transform="translate(-241 310)">
                <line class="d" x2="739" transform="translate(241 30)"/>
            </g>
            <g transform="translate(-241 330)">
                <line class="d" x2="739" transform="translate(241 30)"/>
            </g>
            <g transform="translate(-241 350)">
                <line class="d" x2="739" transform="translate(241 30)"/>
            </g>
            <g transform="translate(-241 370)">
                <line class="d" x2="739" transform="translate(241 30)"/>
            </g>
            <g transform="translate(-241 390)">
                <line class="d" x2="739" transform="translate(241 30)"/>
            </g>
            <g transform="translate(-241 410)">
                <line class="d" x2="739" transform="translate(241 30)"/>
            </g>
            <g transform="translate(-241 430)">
                <line class="d" x2="739" transform="translate(241 30)"/>
            </g>
            <g transform="translate(-241 450)">
                <line class="d" x2="739" transform="translate(241 30)"/>
            </g>
            <g transform="translate(-241 470)">
                <line class="d" x2="739" transform="translate(241 30)"/>
            </g>
            <g transform="translate(-241 490)">
                <line class="d" x2="739" transform="translate(241 30)"/>
            </g>
            <g transform="translate(-241 510)">
                <line class="d" x2="739" transform="translate(241 30)"/>
            </g>
            <g transform="translate(-241 530)">
                <line class="d" x2="739" transform="translate(241 30)"/>
            </g>
            <g transform="translate(-241 550)">
                <line class="d" x2="739" transform="translate(241 30)"/>
            </g>
            <g transform="translate(-241 570)">
                <line class="d" x2="739" transform="translate(241 30)"/>
            </g>
            <g transform="translate(-241 590)">
                <line class="d" x2="739" transform="translate(241 30)"/>
            </g>
            <g transform="translate(-241 610)">
                <line class="d" x2="739" transform="translate(241 30)"/>
            </g>
            <g transform="translate(-241 630)">
                <line class="d" x2="739" transform="translate(241 30)"/>
            </g>
            <g transform="translate(-241 650)">
                <line class="d" x2="739" transform="translate(241 30)"/>
            </g>
            <g transform="translate(-241 670)">
                <line class="d" x2="739" transform="translate(241 30)"/>
            </g>
            <g transform="translate(-241 690)">
                <line class="d" x2="739" transform="translate(241 30)"/>
            </g>
        </g>
    </g>
</svg>